<svg xmlns="http://www.w3.org/2000/svg" xmlns:xlink="http://www.w3.org/1999/xlink" width="460" zoomAndPan="magnify" viewBox="0 0 345 74.999997" height="100" preserveAspectRatio="xMidYMid meet" version="1.0"><defs><g/><clipPath id="09ea1e9260"><path d="M 22.4375 3 L 100.4375 3 L 100.4375 74.996094 L 22.4375 74.996094 Z M 22.4375 3 " clip-rule="nonzero"/></clipPath></defs><g clip-path="url(#09ea1e9260)"><path fill="#ffab2e" d="M 84.988281 19.210938 C 88.25 19.210938 88.261719 47.386719 88.261719 51.214844 C 88.261719 55.859375 81.21875 55.828125 81.21875 61.253906 C 81.21875 62.578125 81.21875 63.855469 81.214844 65.097656 C 81.457031 68.730469 84.941406 70.910156 87.433594 68.882812 C 89.929688 66.855469 89.75 64.648438 90.246094 61.691406 C 91.339844 55.171875 97.65625 48.0625 98.300781 38.761719 C 99.027344 28.324219 97.484375 18.417969 91.492188 12.160156 C 83.734375 4.058594 77.039062 8.277344 64.503906 4.914062 C 46.476562 0.0742188 25.625 11.390625 30.707031 38.761719 C 32.832031 50.1875 29.367188 60.761719 37.953125 66.535156 C 46.25 72.113281 48.703125 64.441406 48.730469 62.886719 L 48.800781 58.917969 C 48.800781 57.820312 48.339844 57.261719 45.570312 55.152344 C 35.53125 47.492188 40.554688 18.855469 51.324219 18.855469 C 62.089844 18.855469 67.117188 47.492188 57.078125 55.152344 C 54.308594 57.261719 53.847656 57.820312 53.847656 58.917969 C 53.867188 60.21875 53.871094 60.234375 53.914062 62.824219 C 53.957031 65.410156 54.71875 71.074219 59.035156 71.664062 C 59.394531 71.714844 60.898438 72 61.265625 72.035156 C 62.632812 72.035156 63.269531 72.277344 64.503906 72.609375 C 66.539062 73.152344 67.855469 72.746094 70.347656 73.835938 C 72.839844 74.925781 76.289062 71.613281 76.289062 68.65625 C 76.285156 65.699219 76.277344 63.875 76.277344 61.253906 C 76.277344 55.828125 69.234375 55.859375 69.234375 51.214844 C 69.234375 47.386719 69.242188 19.210938 72.507812 19.210938 C 72.882812 19.210938 73.480469 19.789062 73.480469 20.914062 L 73.480469 38.308594 C 73.476562 40.808594 73.5625 42.722656 75.214844 42.722656 C 76.863281 42.722656 76.730469 39.308594 76.730469 38.242188 C 76.730469 37.960938 77.480469 21.355469 77.5 21.09375 C 77.589844 19.722656 77.832031 18.855469 78.746094 18.855469 C 79.664062 18.855469 80.042969 19.722656 80.132812 21.09375 C 80.152344 21.355469 80.761719 37.960938 80.761719 38.242188 C 80.761719 39.308594 80.628906 42.722656 82.28125 42.722656 C 83.933594 42.722656 84.019531 40.808594 84.015625 38.308594 L 84.015625 20.914062 C 84.015625 19.789062 84.613281 19.210938 84.988281 19.210938 Z M 24.796875 36.71875 C 26.269531 36.828125 26.894531 36.941406 27.375 35.207031 C 27.855469 33.476562 27.816406 30.304688 26.238281 30.316406 C 24.660156 30.328125 22.4375 31.546875 22.992188 34.402344 C 23.3125 36.054688 23.324219 36.609375 24.796875 36.71875 Z M 27.640625 51.265625 C 28.851562 50.996094 28.945312 47.355469 28.808594 45.582031 C 28.667969 43.808594 28.539062 37.703125 25.589844 38.988281 C 22.640625 40.277344 22.882812 41.839844 24.1875 44.421875 C 24.941406 45.917969 26.433594 51.535156 27.640625 51.265625 Z M 99.222656 53.042969 C 98.085938 52.550781 96.835938 53.507812 95.90625 55.023438 C 94.972656 56.539062 91.484375 61.546875 94.625 62.246094 C 97.765625 62.945312 99.714844 60.847656 100.179688 57.996094 C 100.449219 56.339844 100.355469 53.539062 99.222656 53.042969 " fill-opacity="1" fill-rule="evenodd"/></g><g fill="#ffab2e" fill-opacity="1"><g transform="translate(111.38329, 59.144861)"><g><path d="M 4.203125 5.40625 C 2.796875 4.6875 2.09375 3.539062 2.09375 1.96875 C 2.09375 1.289062 2.242188 0.398438 2.546875 -0.703125 C 2.929688 -2.179688 3.441406 -3.601562 4.078125 -4.96875 C 4.410156 -5.769531 4.75 -6.660156 5.09375 -7.640625 C 5.4375 -8.617188 5.710938 -9.679688 5.921875 -10.828125 C 6.765625 -12.773438 7.515625 -14.671875 8.171875 -16.515625 C 8.835938 -18.359375 9.253906 -19.535156 9.421875 -20.046875 C 9.460938 -20.347656 10.160156 -21.960938 11.515625 -24.890625 L 12.609375 -27.1875 C 13.617188 -30.03125 14.554688 -32.320312 15.421875 -34.0625 C 16.296875 -35.800781 17.394531 -37.664062 18.71875 -39.65625 C 19.394531 -40.757812 20.410156 -41.3125 21.765625 -41.3125 C 22.578125 -41.3125 23.300781 -41.117188 23.9375 -40.734375 C 24.570312 -40.359375 24.992188 -39.832031 25.203125 -39.15625 C 25.585938 -38.257812 25.875 -37.28125 26.0625 -36.21875 C 26.257812 -35.15625 26.398438 -33.269531 26.484375 -30.5625 C 26.523438 -29.707031 26.546875 -28.472656 26.546875 -26.859375 C 26.628906 -23.296875 26.734375 -20.59375 26.859375 -18.75 C 26.984375 -16.90625 27.257812 -15.21875 27.6875 -13.6875 C 27.945312 -11.988281 28.097656 -10.863281 28.140625 -10.3125 C 28.390625 -8.320312 28.617188 -6.773438 28.828125 -5.671875 C 29.046875 -4.566406 29.257812 -4.015625 29.46875 -4.015625 C 29.976562 -4.015625 30.6875 -5.203125 31.59375 -7.578125 C 32.507812 -9.953125 33.882812 -14.851562 35.71875 -22.28125 C 35.96875 -23.125 36.257812 -24.351562 36.59375 -25.96875 C 36.9375 -27.582031 37.191406 -29.15625 37.359375 -30.6875 C 37.828125 -32.425781 38.285156 -34.238281 38.734375 -36.125 C 39.179688 -38.007812 39.40625 -39.039062 39.40625 -39.21875 C 39.40625 -39.425781 39.414062 -39.632812 39.4375 -39.84375 C 39.457031 -40.0625 39.445312 -40.316406 39.40625 -40.609375 C 39.570312 -40.609375 39.75 -40.882812 39.9375 -41.4375 C 40.132812 -41.988281 40.234375 -42.5 40.234375 -42.96875 C 40.234375 -44.195312 40.53125 -45.109375 41.125 -45.703125 C 41.59375 -46.554688 42.269531 -46.984375 43.15625 -46.984375 C 43.832031 -46.984375 44.46875 -46.757812 45.0625 -46.3125 C 45.65625 -45.863281 46.019531 -45.34375 46.15625 -44.75 C 46.28125 -43.851562 45.6875 -40.609375 44.375 -35.015625 C 44.375 -34.503906 44.078125 -32.972656 43.484375 -30.421875 C 43.097656 -28.984375 42.800781 -27.609375 42.59375 -26.296875 C 42.414062 -25.054688 42.207031 -23.988281 41.96875 -23.09375 C 41.738281 -22.207031 41.539062 -21.785156 41.375 -21.828125 C 39.632812 -14.359375 37.40625 -7.53125 34.6875 -1.34375 C 34.050781 0.144531 33.285156 1.300781 32.390625 2.125 C 31.503906 2.957031 30.570312 3.375 29.59375 3.375 C 28.40625 3.375 27.328125 2.757812 26.359375 1.53125 C 25.078125 -0.125 24.140625 -1.8125 23.546875 -3.53125 C 22.953125 -5.25 22.46875 -7.722656 22.09375 -10.953125 C 21.320312 -15.660156 20.9375 -20.410156 20.9375 -25.203125 L 20.9375 -27.25 C 20.976562 -30.21875 20.789062 -31.703125 20.375 -31.703125 C 20.113281 -31.703125 19.8125 -31.316406 19.46875 -30.546875 C 19.132812 -29.785156 18.710938 -28.664062 18.203125 -27.1875 C 17.992188 -26.5 17.039062 -23.992188 15.34375 -19.671875 L 14.265625 -16.875 C 13.492188 -15.34375 12.921875 -13.789062 12.546875 -12.21875 C 11.222656 -8.820312 10.191406 -5.804688 9.453125 -3.171875 C 8.710938 -0.546875 8.300781 0.929688 8.21875 1.265625 C 8.082031 1.734375 7.960938 2.179688 7.859375 2.609375 C 7.753906 3.035156 7.640625 3.414062 7.515625 3.75 C 7.171875 4.644531 6.890625 5.25 6.671875 5.5625 C 6.460938 5.882812 6.191406 6.046875 5.859375 6.046875 C 5.429688 6.046875 4.878906 5.832031 4.203125 5.40625 Z M 4.203125 5.40625 "/></g></g></g><g fill="#ffab2e" fill-opacity="1"><g transform="translate(147.984362, 59.144861)"><g><path d="M 10.6875 -0.453125 C 10.1875 -0.453125 9.785156 -0.535156 9.484375 -0.703125 C 9.191406 -0.867188 8.769531 -1.1875 8.21875 -1.65625 C 7.363281 -2.539062 6.703125 -3.460938 6.234375 -4.421875 C 5.765625 -5.378906 5.597656 -6.21875 5.734375 -6.9375 C 5.859375 -7.238281 5.910156 -7.535156 5.890625 -7.828125 C 5.867188 -8.128906 5.859375 -8.320312 5.859375 -8.40625 C 5.691406 -8.570312 5.609375 -8.6875 5.609375 -8.75 C 5.609375 -8.8125 5.648438 -8.875 5.734375 -8.9375 C 5.816406 -9.007812 5.878906 -9.085938 5.921875 -9.171875 C 6.171875 -9.171875 6.253906 -9.398438 6.171875 -9.859375 C 6.085938 -10.203125 6.234375 -10.945312 6.609375 -12.09375 C 6.992188 -13.238281 7.484375 -14.300781 8.078125 -15.28125 C 8.546875 -16.039062 9.234375 -16.992188 10.140625 -18.140625 C 11.054688 -19.285156 11.878906 -20.15625 12.609375 -20.75 C 14.722656 -22.570312 16.628906 -23.675781 18.328125 -24.0625 C 19.179688 -24.269531 20.007812 -24.375 20.8125 -24.375 C 22.039062 -24.375 23 -24.035156 23.6875 -23.359375 C 24.613281 -22.972656 25.289062 -22.421875 25.71875 -21.703125 C 26.144531 -20.984375 26.421875 -20.03125 26.546875 -18.84375 C 26.585938 -18.582031 26.609375 -18.15625 26.609375 -17.5625 C 26.609375 -14.425781 25.421875 -11.160156 23.046875 -7.765625 C 22.066406 -6.367188 21.085938 -5.242188 20.109375 -4.390625 C 19.140625 -3.546875 17.953125 -2.695312 16.546875 -1.84375 C 15.785156 -1.332031 14.976562 -0.992188 14.125 -0.828125 C 13.28125 -0.660156 12.132812 -0.535156 10.6875 -0.453125 Z M 17.1875 -8.21875 C 17.988281 -8.9375 18.570312 -9.664062 18.9375 -10.40625 C 19.300781 -11.144531 19.820312 -12.453125 20.5 -14.328125 C 20.75 -14.703125 20.875 -15.460938 20.875 -16.609375 C 20.875 -17.628906 20.726562 -18.203125 20.4375 -18.328125 C 20.21875 -18.503906 19.960938 -18.59375 19.671875 -18.59375 C 19.285156 -18.59375 18.671875 -18.296875 17.828125 -17.703125 C 16.335938 -16.421875 15.09375 -15.09375 14.09375 -13.71875 C 13.101562 -12.34375 12.414062 -10.757812 12.03125 -8.96875 C 11.988281 -8.800781 11.96875 -8.550781 11.96875 -8.21875 C 11.96875 -6.769531 12.476562 -6.046875 13.5 -6.046875 C 14.46875 -6.046875 15.695312 -6.769531 17.1875 -8.21875 Z M 17.1875 -8.21875 "/></g></g></g><g fill="#ffab2e" fill-opacity="1"><g transform="translate(171.027128, 59.144861)"><g><path d="M 36.859375 -1.46875 C 36.304688 -1.46875 35.878906 -1.550781 35.578125 -1.71875 C 35.242188 -1.84375 34.8125 -2.148438 34.28125 -2.640625 C 33.75 -3.128906 33.28125 -3.828125 32.875 -4.734375 C 32.476562 -5.648438 32.28125 -6.742188 32.28125 -8.015625 C 32.28125 -8.828125 32.332031 -9.539062 32.4375 -10.15625 C 32.539062 -10.769531 32.59375 -11.160156 32.59375 -11.328125 C 32.59375 -11.546875 32.53125 -11.65625 32.40625 -11.65625 C 31.300781 -11.65625 28.898438 -9.640625 25.203125 -5.609375 C 25.078125 -5.515625 24.972656 -5.40625 24.890625 -5.28125 C 24.378906 -4.894531 23.910156 -4.492188 23.484375 -4.078125 C 22.847656 -3.484375 22.328125 -3.046875 21.921875 -2.765625 C 21.523438 -2.492188 21.09375 -2.335938 20.625 -2.296875 C 20.320312 -2.296875 20.003906 -2.421875 19.671875 -2.671875 L 18.96875 -3.25 C 18.757812 -3.375 18.566406 -3.601562 18.390625 -3.9375 C 18.222656 -4.28125 18.140625 -4.601562 18.140625 -4.90625 L 18.140625 -5.21875 L 19.609375 -9.484375 C 20.671875 -11.816406 21.203125 -13.195312 21.203125 -13.625 C 21.203125 -13.707031 21.179688 -13.75 21.140625 -13.75 C 20.753906 -13.789062 20.1875 -13.460938 19.4375 -12.765625 C 18.695312 -12.066406 17.648438 -10.972656 16.296875 -9.484375 L 13.4375 -6.5 C 13.09375 -6.15625 12.175781 -5.132812 10.6875 -3.4375 C 9.757812 -2.289062 9.273438 -1.71875 9.234375 -1.71875 C 8.296875 -1.71875 7.457031 -2.078125 6.71875 -2.796875 C 5.976562 -3.523438 5.609375 -4.394531 5.609375 -5.40625 C 5.609375 -5.914062 5.691406 -6.59375 5.859375 -7.4375 C 6.023438 -8.289062 6.210938 -9.1875 6.421875 -10.125 C 6.515625 -10.457031 6.613281 -10.835938 6.71875 -11.265625 C 6.820312 -11.691406 6.9375 -12.179688 7.0625 -12.734375 C 7.144531 -13.160156 7.238281 -13.625 7.34375 -14.125 C 7.457031 -14.632812 7.679688 -15.300781 8.015625 -16.125 C 8.359375 -16.957031 8.847656 -18.117188 9.484375 -19.609375 C 9.648438 -20.160156 9.734375 -20.734375 9.734375 -21.328125 C 9.734375 -21.617188 9.710938 -21.898438 9.671875 -22.171875 C 9.628906 -22.453125 9.609375 -22.632812 9.609375 -22.71875 C 9.609375 -23.363281 9.914062 -23.90625 10.53125 -24.34375 C 11.144531 -24.789062 11.835938 -25.015625 12.609375 -25.015625 C 13.710938 -25.015625 14.539062 -24.617188 15.09375 -23.828125 C 15.644531 -23.046875 15.921875 -22.234375 15.921875 -21.390625 C 15.921875 -20.671875 15.75 -19.96875 15.40625 -19.28125 L 14.703125 -17.5625 C 14.535156 -17.1875 14.226562 -16.5 13.78125 -15.5 C 13.332031 -14.5 13.109375 -13.894531 13.109375 -13.6875 C 13.109375 -13.5625 13.148438 -13.5 13.234375 -13.5 L 13.296875 -13.5 C 13.515625 -13.5 13.859375 -13.734375 14.328125 -14.203125 C 15.679688 -15.472656 17.320312 -16.796875 19.25 -18.171875 C 21.1875 -19.554688 22.578125 -20.375 23.421875 -20.625 C 23.765625 -20.625 24.210938 -20.453125 24.765625 -20.109375 C 25.316406 -19.773438 25.800781 -19.320312 26.21875 -18.75 C 26.644531 -18.175781 26.859375 -17.550781 26.859375 -16.875 L 26.796875 -16.359375 C 26.753906 -16.191406 26.570312 -15.46875 26.25 -14.1875 C 25.9375 -12.914062 25.695312 -12.175781 25.53125 -11.96875 C 26.332031 -12.90625 27.726562 -14.0625 29.71875 -15.4375 C 31.71875 -16.8125 33.1875 -17.519531 34.125 -17.5625 C 35.519531 -17.5625 36.429688 -16.988281 36.859375 -15.84375 C 37.285156 -14.695312 37.582031 -13.023438 37.75 -10.828125 C 37.914062 -8.742188 38.148438 -7.34375 38.453125 -6.625 C 38.535156 -6.363281 38.832031 -6.148438 39.34375 -5.984375 C 39.851562 -5.816406 40.265625 -5.613281 40.578125 -5.375 C 40.898438 -5.144531 41.0625 -4.691406 41.0625 -4.015625 C 41.0625 -3.078125 40.644531 -2.414062 39.8125 -2.03125 C 38.988281 -1.65625 38.003906 -1.46875 36.859375 -1.46875 Z M 36.859375 -1.46875 "/></g></g></g><g fill="#ffab2e" fill-opacity="1"><g transform="translate(207.246274, 59.144861)"><g><path d="M 4.203125 5.40625 C 2.796875 4.6875 2.09375 3.539062 2.09375 1.96875 C 2.09375 1.289062 2.242188 0.398438 2.546875 -0.703125 C 2.929688 -2.179688 3.441406 -3.601562 4.078125 -4.96875 C 4.410156 -5.769531 4.75 -6.660156 5.09375 -7.640625 C 5.4375 -8.617188 5.710938 -9.679688 5.921875 -10.828125 C 6.765625 -12.773438 7.515625 -14.671875 8.171875 -16.515625 C 8.835938 -18.359375 9.253906 -19.535156 9.421875 -20.046875 C 9.460938 -20.347656 10.160156 -21.960938 11.515625 -24.890625 L 12.609375 -27.1875 C 13.617188 -30.03125 14.554688 -32.320312 15.421875 -34.0625 C 16.296875 -35.800781 17.394531 -37.664062 18.71875 -39.65625 C 19.394531 -40.757812 20.410156 -41.3125 21.765625 -41.3125 C 22.578125 -41.3125 23.300781 -41.117188 23.9375 -40.734375 C 24.570312 -40.359375 24.992188 -39.832031 25.203125 -39.15625 C 25.585938 -38.257812 25.875 -37.28125 26.0625 -36.21875 C 26.257812 -35.15625 26.398438 -33.269531 26.484375 -30.5625 C 26.523438 -29.707031 26.546875 -28.472656 26.546875 -26.859375 C 26.628906 -23.296875 26.734375 -20.59375 26.859375 -18.75 C 26.984375 -16.90625 27.257812 -15.21875 27.6875 -13.6875 C 27.945312 -11.988281 28.097656 -10.863281 28.140625 -10.3125 C 28.390625 -8.320312 28.617188 -6.773438 28.828125 -5.671875 C 29.046875 -4.566406 29.257812 -4.015625 29.46875 -4.015625 C 29.976562 -4.015625 30.6875 -5.203125 31.59375 -7.578125 C 32.507812 -9.953125 33.882812 -14.851562 35.71875 -22.28125 C 35.96875 -23.125 36.257812 -24.351562 36.59375 -25.96875 C 36.9375 -27.582031 37.191406 -29.15625 37.359375 -30.6875 C 37.828125 -32.425781 38.285156 -34.238281 38.734375 -36.125 C 39.179688 -38.007812 39.40625 -39.039062 39.40625 -39.21875 C 39.40625 -39.425781 39.414062 -39.632812 39.4375 -39.84375 C 39.457031 -40.0625 39.445312 -40.316406 39.40625 -40.609375 C 39.570312 -40.609375 39.75 -40.882812 39.9375 -41.4375 C 40.132812 -41.988281 40.234375 -42.5 40.234375 -42.96875 C 40.234375 -44.195312 40.53125 -45.109375 41.125 -45.703125 C 41.59375 -46.554688 42.269531 -46.984375 43.15625 -46.984375 C 43.832031 -46.984375 44.46875 -46.757812 45.0625 -46.3125 C 45.65625 -45.863281 46.019531 -45.34375 46.15625 -44.75 C 46.28125 -43.851562 45.6875 -40.609375 44.375 -35.015625 C 44.375 -34.503906 44.078125 -32.972656 43.484375 -30.421875 C 43.097656 -28.984375 42.800781 -27.609375 42.59375 -26.296875 C 42.414062 -25.054688 42.207031 -23.988281 41.96875 -23.09375 C 41.738281 -22.207031 41.539062 -21.785156 41.375 -21.828125 C 39.632812 -14.359375 37.40625 -7.53125 34.6875 -1.34375 C 34.050781 0.144531 33.285156 1.300781 32.390625 2.125 C 31.503906 2.957031 30.570312 3.375 29.59375 3.375 C 28.40625 3.375 27.328125 2.757812 26.359375 1.53125 C 25.078125 -0.125 24.140625 -1.8125 23.546875 -3.53125 C 22.953125 -5.25 22.46875 -7.722656 22.09375 -10.953125 C 21.320312 -15.660156 20.9375 -20.410156 20.9375 -25.203125 L 20.9375 -27.25 C 20.976562 -30.21875 20.789062 -31.703125 20.375 -31.703125 C 20.113281 -31.703125 19.8125 -31.316406 19.46875 -30.546875 C 19.132812 -29.785156 18.710938 -28.664062 18.203125 -27.1875 C 17.992188 -26.5 17.039062 -23.992188 15.34375 -19.671875 L 14.265625 -16.875 C 13.492188 -15.34375 12.921875 -13.789062 12.546875 -12.21875 C 11.222656 -8.820312 10.191406 -5.804688 9.453125 -3.171875 C 8.710938 -0.546875 8.300781 0.929688 8.21875 1.265625 C 8.082031 1.734375 7.960938 2.179688 7.859375 2.609375 C 7.753906 3.035156 7.640625 3.414062 7.515625 3.75 C 7.171875 4.644531 6.890625 5.25 6.671875 5.5625 C 6.460938 5.882812 6.191406 6.046875 5.859375 6.046875 C 5.429688 6.046875 4.878906 5.832031 4.203125 5.40625 Z M 4.203125 5.40625 "/></g></g></g><g fill="#ffab2e" fill-opacity="1"><g transform="translate(243.847346, 59.144861)"><g><path d="M 10.6875 -0.453125 C 10.1875 -0.453125 9.785156 -0.535156 9.484375 -0.703125 C 9.191406 -0.867188 8.769531 -1.1875 8.21875 -1.65625 C 7.363281 -2.539062 6.703125 -3.460938 6.234375 -4.421875 C 5.765625 -5.378906 5.597656 -6.21875 5.734375 -6.9375 C 5.859375 -7.238281 5.910156 -7.535156 5.890625 -7.828125 C 5.867188 -8.128906 5.859375 -8.320312 5.859375 -8.40625 C 5.691406 -8.570312 5.609375 -8.6875 5.609375 -8.75 C 5.609375 -8.8125 5.648438 -8.875 5.734375 -8.9375 C 5.816406 -9.007812 5.878906 -9.085938 5.921875 -9.171875 C 6.171875 -9.171875 6.253906 -9.398438 6.171875 -9.859375 C 6.085938 -10.203125 6.234375 -10.945312 6.609375 -12.09375 C 6.992188 -13.238281 7.484375 -14.300781 8.078125 -15.28125 C 8.546875 -16.039062 9.234375 -16.992188 10.140625 -18.140625 C 11.054688 -19.285156 11.878906 -20.15625 12.609375 -20.75 C 14.722656 -22.570312 16.628906 -23.675781 18.328125 -24.0625 C 19.179688 -24.269531 20.007812 -24.375 20.8125 -24.375 C 22.039062 -24.375 23 -24.035156 23.6875 -23.359375 C 24.613281 -22.972656 25.289062 -22.421875 25.71875 -21.703125 C 26.144531 -20.984375 26.421875 -20.03125 26.546875 -18.84375 C 26.585938 -18.582031 26.609375 -18.15625 26.609375 -17.5625 C 26.609375 -14.425781 25.421875 -11.160156 23.046875 -7.765625 C 22.066406 -6.367188 21.085938 -5.242188 20.109375 -4.390625 C 19.140625 -3.546875 17.953125 -2.695312 16.546875 -1.84375 C 15.785156 -1.332031 14.976562 -0.992188 14.125 -0.828125 C 13.28125 -0.660156 12.132812 -0.535156 10.6875 -0.453125 Z M 17.1875 -8.21875 C 17.988281 -8.9375 18.570312 -9.664062 18.9375 -10.40625 C 19.300781 -11.144531 19.820312 -12.453125 20.5 -14.328125 C 20.75 -14.703125 20.875 -15.460938 20.875 -16.609375 C 20.875 -17.628906 20.726562 -18.203125 20.4375 -18.328125 C 20.21875 -18.503906 19.960938 -18.59375 19.671875 -18.59375 C 19.285156 -18.59375 18.671875 -18.296875 17.828125 -17.703125 C 16.335938 -16.421875 15.09375 -15.09375 14.09375 -13.71875 C 13.101562 -12.34375 12.414062 -10.757812 12.03125 -8.96875 C 11.988281 -8.800781 11.96875 -8.550781 11.96875 -8.21875 C 11.96875 -6.769531 12.476562 -6.046875 13.5 -6.046875 C 14.46875 -6.046875 15.695312 -6.769531 17.1875 -8.21875 Z M 17.1875 -8.21875 "/></g></g></g><g fill="#ffab2e" fill-opacity="1"><g transform="translate(266.890113, 59.144861)"><g><path d="M 36.859375 -1.46875 C 36.304688 -1.46875 35.878906 -1.550781 35.578125 -1.71875 C 35.242188 -1.84375 34.8125 -2.148438 34.28125 -2.640625 C 33.75 -3.128906 33.28125 -3.828125 32.875 -4.734375 C 32.476562 -5.648438 32.28125 -6.742188 32.28125 -8.015625 C 32.28125 -8.828125 32.332031 -9.539062 32.4375 -10.15625 C 32.539062 -10.769531 32.59375 -11.160156 32.59375 -11.328125 C 32.59375 -11.546875 32.53125 -11.65625 32.40625 -11.65625 C 31.300781 -11.65625 28.898438 -9.640625 25.203125 -5.609375 C 25.078125 -5.515625 24.972656 -5.40625 24.890625 -5.28125 C 24.378906 -4.894531 23.910156 -4.492188 23.484375 -4.078125 C 22.847656 -3.484375 22.328125 -3.046875 21.921875 -2.765625 C 21.523438 -2.492188 21.09375 -2.335938 20.625 -2.296875 C 20.320312 -2.296875 20.003906 -2.421875 19.671875 -2.671875 L 18.96875 -3.25 C 18.757812 -3.375 18.566406 -3.601562 18.390625 -3.9375 C 18.222656 -4.28125 18.140625 -4.601562 18.140625 -4.90625 L 18.140625 -5.21875 L 19.609375 -9.484375 C 20.671875 -11.816406 21.203125 -13.195312 21.203125 -13.625 C 21.203125 -13.707031 21.179688 -13.75 21.140625 -13.75 C 20.753906 -13.789062 20.1875 -13.460938 19.4375 -12.765625 C 18.695312 -12.066406 17.648438 -10.972656 16.296875 -9.484375 L 13.4375 -6.5 C 13.09375 -6.15625 12.175781 -5.132812 10.6875 -3.4375 C 9.757812 -2.289062 9.273438 -1.71875 9.234375 -1.71875 C 8.296875 -1.71875 7.457031 -2.078125 6.71875 -2.796875 C 5.976562 -3.523438 5.609375 -4.394531 5.609375 -5.40625 C 5.609375 -5.914062 5.691406 -6.59375 5.859375 -7.4375 C 6.023438 -8.289062 6.210938 -9.1875 6.421875 -10.125 C 6.515625 -10.457031 6.613281 -10.835938 6.71875 -11.265625 C 6.820312 -11.691406 6.9375 -12.179688 7.0625 -12.734375 C 7.144531 -13.160156 7.238281 -13.625 7.34375 -14.125 C 7.457031 -14.632812 7.679688 -15.300781 8.015625 -16.125 C 8.359375 -16.957031 8.847656 -18.117188 9.484375 -19.609375 C 9.648438 -20.160156 9.734375 -20.734375 9.734375 -21.328125 C 9.734375 -21.617188 9.710938 -21.898438 9.671875 -22.171875 C 9.628906 -22.453125 9.609375 -22.632812 9.609375 -22.71875 C 9.609375 -23.363281 9.914062 -23.90625 10.53125 -24.34375 C 11.144531 -24.789062 11.835938 -25.015625 12.609375 -25.015625 C 13.710938 -25.015625 14.539062 -24.617188 15.09375 -23.828125 C 15.644531 -23.046875 15.921875 -22.234375 15.921875 -21.390625 C 15.921875 -20.671875 15.75 -19.96875 15.40625 -19.28125 L 14.703125 -17.5625 C 14.535156 -17.1875 14.226562 -16.5 13.78125 -15.5 C 13.332031 -14.5 13.109375 -13.894531 13.109375 -13.6875 C 13.109375 -13.5625 13.148438 -13.5 13.234375 -13.5 L 13.296875 -13.5 C 13.515625 -13.5 13.859375 -13.734375 14.328125 -14.203125 C 15.679688 -15.472656 17.320312 -16.796875 19.25 -18.171875 C 21.1875 -19.554688 22.578125 -20.375 23.421875 -20.625 C 23.765625 -20.625 24.210938 -20.453125 24.765625 -20.109375 C 25.316406 -19.773438 25.800781 -19.320312 26.21875 -18.75 C 26.644531 -18.175781 26.859375 -17.550781 26.859375 -16.875 L 26.796875 -16.359375 C 26.753906 -16.191406 26.570312 -15.46875 26.25 -14.1875 C 25.9375 -12.914062 25.695312 -12.175781 25.53125 -11.96875 C 26.332031 -12.90625 27.726562 -14.0625 29.71875 -15.4375 C 31.71875 -16.8125 33.1875 -17.519531 34.125 -17.5625 C 35.519531 -17.5625 36.429688 -16.988281 36.859375 -15.84375 C 37.285156 -14.695312 37.582031 -13.023438 37.75 -10.828125 C 37.914062 -8.742188 38.148438 -7.34375 38.453125 -6.625 C 38.535156 -6.363281 38.832031 -6.148438 39.34375 -5.984375 C 39.851562 -5.816406 40.265625 -5.613281 40.578125 -5.375 C 40.898438 -5.144531 41.0625 -4.691406 41.0625 -4.015625 C 41.0625 -3.078125 40.644531 -2.414062 39.8125 -2.03125 C 38.988281 -1.65625 38.003906 -1.46875 36.859375 -1.46875 Z M 36.859375 -1.46875 "/></g></g></g><g fill="#ffab2e" fill-opacity="1"><g transform="translate(303.109258, 59.144861)"><g><path d="M 12.671875 -10.25 C 12.546875 -10.207031 12.351562 -10.1875 12.09375 -10.1875 C 11.289062 -10.1875 10.644531 -10.515625 10.15625 -11.171875 C 9.664062 -11.828125 9.421875 -12.835938 9.421875 -14.203125 C 9.421875 -15.253906 9.613281 -16.566406 10 -18.140625 C 10.59375 -19.328125 10.890625 -20.21875 10.890625 -20.8125 C 11.097656 -21.53125 11.4375 -22.453125 11.90625 -23.578125 C 12.375 -24.703125 12.753906 -25.5625 13.046875 -26.15625 C 13.210938 -26.15625 13.390625 -26.300781 13.578125 -26.59375 C 13.773438 -26.894531 13.875 -27.195312 13.875 -27.5 C 13.875 -27.882812 13.945312 -28.273438 14.09375 -28.671875 C 14.25 -29.078125 14.410156 -29.363281 14.578125 -29.53125 C 14.578125 -29.664062 14.660156 -29.890625 14.828125 -30.203125 C 15.003906 -30.523438 15.09375 -30.75 15.09375 -30.875 C 15.09375 -30.957031 15.144531 -31.09375 15.25 -31.28125 C 15.351562 -31.476562 15.40625 -31.640625 15.40625 -31.765625 C 16.164062 -33.035156 17.265625 -35.429688 18.703125 -38.953125 C 20.148438 -42.472656 20.894531 -44.507812 20.9375 -45.0625 C 21.113281 -46.039062 21.5 -46.46875 22.09375 -46.34375 C 22.300781 -46.507812 22.804688 -46.59375 23.609375 -46.59375 C 23.742188 -46.550781 23.976562 -46.445312 24.3125 -46.28125 C 24.65625 -46.113281 24.953125 -45.878906 25.203125 -45.578125 C 25.503906 -45.273438 25.6875 -44.910156 25.75 -44.484375 C 25.8125 -44.066406 25.84375 -43.519531 25.84375 -42.84375 C 25.800781 -42.207031 25.609375 -41.515625 25.265625 -40.765625 C 24.929688 -40.023438 24.53125 -39.25 24.0625 -38.4375 C 23.59375 -37.632812 23.273438 -37.066406 23.109375 -36.734375 L 22.28125 -35.203125 C 21.601562 -34.015625 21.265625 -33.3125 21.265625 -33.09375 C 21.265625 -32.925781 21.15625 -32.617188 20.9375 -32.171875 C 20.726562 -31.734375 20.5625 -31.363281 20.4375 -31.0625 C 20.09375 -30.507812 19.738281 -29.742188 19.375 -28.765625 C 19.019531 -27.796875 18.84375 -27.203125 18.84375 -26.984375 C 18.800781 -26.898438 18.75 -26.75 18.6875 -26.53125 C 18.625 -26.320312 18.503906 -26.132812 18.328125 -25.96875 C 18.203125 -25.96875 18.117188 -25.875 18.078125 -25.6875 C 18.035156 -25.5 18.015625 -25.359375 18.015625 -25.265625 C 18.015625 -25.054688 17.90625 -24.632812 17.6875 -24 C 17.476562 -23.363281 17.1875 -22.660156 16.8125 -21.890625 C 15.363281 -17.773438 14.578125 -14.847656 14.453125 -13.109375 C 14.367188 -12.222656 14.164062 -11.585938 13.84375 -11.203125 C 13.53125 -10.816406 13.140625 -10.5 12.671875 -10.25 Z M 9.296875 -0.375 C 8.484375 -0.0390625 7.800781 0.125 7.25 0.125 C 6.613281 0.125 5.894531 -0.171875 5.09375 -0.765625 C 4.457031 -1.398438 4.140625 -2.035156 4.140625 -2.671875 C 4.140625 -3.734375 4.925781 -4.796875 6.5 -5.859375 C 7.425781 -6.453125 8.101562 -6.75 8.53125 -6.75 C 8.820312 -6.75 9.375 -6.578125 10.1875 -6.234375 C 11.457031 -5.429688 12.09375 -4.5625 12.09375 -3.625 C 12.09375 -2.4375 11.160156 -1.351562 9.296875 -0.375 Z M 9.296875 -0.375 "/></g></g></g></svg>